<svg width="45" height="45" viewBox="0 0 45 45" fill="none" xmlns="http://www.w3.org/2000/svg">
<path d="M22.6214 0C10.2633 0 0.24292 10.0204 0.24292 22.3785C0.24292 34.7366 10.2633 44.7571 22.6214 44.7571C34.9797 44.7571 44.9999 34.7366 44.9999 22.3785C44.9999 10.0204 34.9797 0 22.6214 0ZM33.3762 16.8688C33.3911 17.1036 33.3911 17.3484 33.3911 17.5881C33.3911 24.9212 27.8065 33.368 17.6013 33.368C14.4543 33.368 11.5371 32.4539 9.07946 30.8804C9.52901 30.9304 9.9586 30.9504 10.4182 30.9504C13.0157 30.9504 15.4034 30.0712 17.3066 28.5825C14.8689 28.5326 12.8209 26.9343 12.1215 24.7362C12.9757 24.8612 13.745 24.8612 14.6241 24.6363C13.369 24.3814 12.2408 23.6997 11.4313 22.7071C10.6218 21.7146 10.1808 20.4725 10.1834 19.1916V19.1217C10.9177 19.5363 11.7819 19.791 12.686 19.826C11.9259 19.3195 11.3026 18.6332 10.8713 17.8281C10.44 17.0229 10.214 16.1238 10.2134 15.2104C10.2134 14.1764 10.4831 13.2323 10.9676 12.4131C12.3608 14.1281 14.0993 15.5308 16.0701 16.53C18.0408 17.5291 20.1998 18.1024 22.4068 18.2125C21.6225 14.4412 24.4397 11.3891 27.8265 11.3891C29.4249 11.3891 30.8636 12.0584 31.8777 13.1374C33.1315 12.9026 34.3303 12.4331 35.3993 11.8037C34.9846 13.0874 34.1154 14.1714 32.9615 14.8558C34.0804 14.7359 35.1595 14.4262 36.1584 13.9916C35.4042 15.1005 34.4602 16.0846 33.3762 16.8688Z" fill="#C0B7E8"/>
</svg>
