<svg width="43" height="42" viewBox="0 0 43 42" fill="none" xmlns="http://www.w3.org/2000/svg">
<path d="M42.9636 21.3784C42.9636 32.7077 33.5497 41.892 21.9371 41.892C10.3245 41.892 0.910645 32.7077 0.910645 21.3784C0.910645 10.049 10.3245 0.864746 21.9371 0.864746C33.5497 0.864746 42.9636 10.049 42.9636 21.3784Z" fill="#C0B7E8"/>
<path d="M21.5381 12.054C19.9112 12.056 18.3123 12.478 16.8963 13.2791C15.4804 14.0802 14.2952 15.2333 13.4556 16.6268C12.616 18.0203 12.1503 19.607 12.1038 21.2332C12.0572 22.8595 12.4313 24.4702 13.1898 25.9094L12.4818 28.3921C12.3968 28.6915 12.3933 29.0082 12.4716 29.3094C12.55 29.6106 12.7073 29.8855 12.9274 30.1056C13.1475 30.3257 13.4224 30.483 13.7236 30.5613C14.0248 30.6397 14.3415 30.6362 14.6409 30.5512L17.1235 29.8432C18.3906 30.5123 19.7933 30.8843 21.2254 30.9309C22.6575 30.9775 24.0814 30.6975 25.3892 30.1121C26.6971 29.5268 27.8545 28.6514 28.7739 27.5524C29.6932 26.4534 30.3503 25.1595 30.6954 23.7688C31.0405 22.3781 31.0646 20.9271 30.7657 19.5258C30.4669 18.1245 29.8529 16.8095 28.9705 15.6806C28.0881 14.5518 26.9602 13.6385 25.6725 13.0102C24.3848 12.3818 22.9709 12.0549 21.5381 12.054ZM21.5381 28.8379C20.2195 28.8353 18.9252 28.4824 17.7879 27.8151C17.6286 27.7144 17.4431 27.6627 17.2547 27.6665C17.1574 27.6652 17.0603 27.6769 16.9662 27.7015L14.6759 28.3571L15.3315 26.0668C15.37 25.9294 15.3797 25.7855 15.3601 25.6441C15.3406 25.5028 15.2922 25.3669 15.2179 25.2451C14.5506 24.1078 14.1976 22.8135 14.1951 21.4949C14.1951 20.0426 14.6258 18.623 15.4326 17.4154C16.2395 16.2079 17.3863 15.2667 18.728 14.7109C20.0698 14.1552 21.5462 14.0098 22.9706 14.2931C24.395 14.5764 25.7034 15.2758 26.7303 16.3027C27.7572 17.3296 28.4566 18.638 28.7399 20.0624C29.0232 21.4868 28.8778 22.9632 28.3221 24.305C27.7663 25.6467 26.8251 26.7935 25.6176 27.6004C24.41 28.4072 22.9904 28.8379 21.5381 28.8379ZM25.3844 19.7466C25.3844 20.0248 25.2738 20.2916 25.0771 20.4884C24.8804 20.6851 24.6136 20.7956 24.3354 20.7956H18.7407C18.4625 20.7956 18.1957 20.6851 17.999 20.4884C17.8023 20.2916 17.6917 20.0248 17.6917 19.7466C17.6917 19.4684 17.8023 19.2016 17.999 19.0049C18.1957 18.8081 18.4625 18.6976 18.7407 18.6976H24.3354C24.6136 18.6976 24.8804 18.8081 25.0771 19.0049C25.2738 19.2016 25.3844 19.4684 25.3844 19.7466ZM25.3844 23.2433C25.3844 23.5215 25.2738 23.7883 25.0771 23.985C24.8804 24.1817 24.6136 24.2922 24.3354 24.2922H18.7407C18.4625 24.2922 18.1957 24.1817 17.999 23.985C17.8023 23.7883 17.6917 23.5215 17.6917 23.2433C17.6917 22.965 17.8023 22.6982 17.999 22.5015C18.1957 22.3048 18.4625 22.1943 18.7407 22.1943H24.3354C24.6136 22.1943 24.8804 22.3048 25.0771 22.5015C25.2738 22.6982 25.3844 22.965 25.3844 23.2433Z" fill="#302C42"/>
</svg>
