<svg width="43" height="42" viewBox="0 0 43 42" fill="none" xmlns="http://www.w3.org/2000/svg">
<ellipse cx="21.6034" cy="21.3784" rx="21.0265" ry="20.5136" fill="#C0B7E8"/>
<path d="M18.1068 30.283C18.1068 30.283 17.4075 27.4857 18.8062 26.087C18.8062 26.087 16.0088 26.087 13.9109 23.9891C11.8129 21.8911 12.5122 17.6951 13.9109 16.2964C13.2115 14.1985 14.6102 12.7998 14.6102 12.7998C14.6102 12.7998 16.7082 12.7998 18.1068 14.1985C19.5055 13.4991 23.0021 13.4991 24.4008 14.1985C25.7994 12.7998 27.8974 12.7998 27.8974 12.7998C27.8974 12.7998 29.2961 14.1985 28.5968 16.2964C29.9954 17.6951 30.6947 21.8911 28.5968 23.9891C26.4988 26.087 23.7015 26.087 23.7015 26.087C25.1001 27.4857 24.4008 30.283 24.4008 30.283M17.4075 29.5837C15.3095 30.283 13.2115 28.8844 12.5122 28.185" stroke="#302C42" stroke-width="2.09799" stroke-linecap="round" stroke-linejoin="round"/>
</svg>
